# xmcd
#
# Track frame offsets: 
#        150
#        21910
#        39513
#        57496
#        79680
#        97741
#        118646
#        139398
#        160461
#        176507
#        185774
#        194430
#
# Disc length: 2904 seconds
#
# Revision: 0
# Processed by: cddbd v1.5.2PL0 Copyright (c) Steve Scherf et al.
# Submitted via: ExactAudioCopy v0.99pb3
#
DISCID=a50b560c
DTITLE=Marvin Gaye - Marvin Gaye
DYEAR=2010
DGENRE=R&B
TTITLE0=Sexual Healing
TTITLE1=I Heard It Through the Grapevine
TTITLE2=Let's Get It On
TTITLE3=How Sweet It Is To Be Loved by You
TTITLE4=What's Goin' On
TTITLE5=Inner City Blues
TTITLE6=I Want You
TTITLE7=Got To Give It Up
TTITLE8=Come Get To This
TTITLE9=Ain't No Mountain High Enough
TTITLE10=If This World Were Mine
TTITLE11=Distant Lover
EXTD=
EXTT0=
EXTT1=
EXTT2=
EXTT3=
EXTT4=
EXTT5=
EXTT6=
EXTT7=
EXTT8=
EXTT9=
EXTT10=
EXTT11=
PLAYORDER=
